<svg width="45" height="44" viewBox="0 0 45 44" fill="none" xmlns="http://www.w3.org/2000/svg">
<rect x="0.666626" width="44" height="44" rx="22" fill="#FE5E44" fill-opacity="0.05"/>
<path d="M27.6666 12H17.6666C14.9052 12 12.6666 14.2386 12.6666 17V27C12.6666 29.7614 14.9052 32 17.6666 32H27.6666C30.428 32 32.6666 29.7614 32.6666 27V17C32.6666 14.2386 30.428 12 27.6666 12Z" stroke="#FE5E44" stroke-linecap="round" stroke-linejoin="round"/>
<path d="M26.6666 21.3698C26.7901 22.2021 26.6479 23.052 26.2604 23.7988C25.8729 24.5456 25.2598 25.1512 24.5083 25.5295C23.7567 25.9077 22.9051 26.0394 22.0744 25.9057C21.2438 25.7721 20.4764 25.3799 19.8815 24.785C19.2866 24.1901 18.8944 23.4227 18.7607 22.592C18.627 21.7614 18.7587 20.9097 19.137 20.1582C19.5152 19.4067 20.1208 18.7936 20.8676 18.4061C21.6144 18.0186 22.4644 17.8764 23.2966 17.9998C24.1456 18.1257 24.9315 18.5213 25.5383 19.1281C26.1452 19.735 26.5408 20.5209 26.6666 21.3698Z" stroke="#FE5E44" stroke-linecap="round" stroke-linejoin="round"/>
<path d="M28.1666 16.5H28.1766" stroke="#FE5E44" stroke-linecap="round" stroke-linejoin="round"/>
</svg>
