<svg width="121" height="20" viewBox="0 0 121 20" fill="none" xmlns="http://www.w3.org/2000/svg">
<g clip-path="url(#clip0_260_109)">
<rect x="0.666656" width="20" height="20" rx="3" fill="#FFC93F"/>
<path d="M9.36996 5.81663C9.7368 5.07346 10.7965 5.07346 11.1634 5.81663L12.0118 7.53549C12.1574 7.83034 12.4385 8.0348 12.7639 8.08235L14.6629 8.35992C15.4828 8.47976 15.8096 9.4876 15.216 10.0658L13.8435 11.4026C13.6076 11.6323 13.4999 11.9635 13.5556 12.288L13.8793 14.1754C14.0194 14.9924 13.1619 15.6154 12.4282 15.2295L10.7321 14.3376C10.4407 14.1843 10.0926 14.1843 9.80122 14.3376L8.1051 15.2295C7.37147 15.6154 6.51392 14.9924 6.65404 14.1754L6.97776 12.288C7.03342 11.9635 6.92575 11.6323 6.68988 11.4026L5.31735 10.0658C4.72375 9.4876 5.05054 8.47976 5.87045 8.35992L7.76944 8.08235C8.09479 8.0348 8.37597 7.83034 8.52151 7.53549L9.36996 5.81663Z" fill="white"/>
<rect x="25.6667" width="20" height="20" rx="3" fill="black" fill-opacity="0.2"/>
<path d="M34.37 5.81663C34.7368 5.07346 35.7965 5.07346 36.1634 5.81663L37.0118 7.53549C37.1574 7.83034 37.4385 8.0348 37.7639 8.08235L39.6629 8.35992C40.4828 8.47976 40.8096 9.4876 40.216 10.0658L38.8435 11.4026C38.6076 11.6323 38.4999 11.9635 38.5556 12.288L38.8793 14.1754C39.0194 14.9924 38.1619 15.6154 37.4282 15.2295L35.7321 14.3376C35.4407 14.1843 35.0926 14.1843 34.8012 14.3376L33.1051 15.2295C32.3715 15.6154 31.5139 14.9924 31.654 14.1754L31.9778 12.288C32.0334 11.9635 31.9258 11.6323 31.6899 11.4026L30.3173 10.0658C29.7238 9.4876 30.0505 8.47976 30.8705 8.35992L32.7694 8.08235C33.0948 8.0348 33.376 7.83034 33.5215 7.53549L34.37 5.81663Z" fill="white"/>
<rect x="50.6667" width="20" height="20" rx="3" fill="black" fill-opacity="0.2"/>
<path d="M59.37 5.81663C59.7368 5.07346 60.7965 5.07346 61.1634 5.81663L62.0118 7.53549C62.1574 7.83034 62.4385 8.0348 62.7639 8.08235L64.6629 8.35992C65.4828 8.47976 65.8096 9.4876 65.216 10.0658L63.8435 11.4026C63.6076 11.6323 63.4999 11.9635 63.5556 12.288L63.8793 14.1754C64.0194 14.9924 63.1619 15.6154 62.4282 15.2295L60.7321 14.3376C60.4407 14.1843 60.0926 14.1843 59.8012 14.3376L58.1051 15.2295C57.3715 15.6154 56.5139 14.9924 56.654 14.1754L56.9778 12.288C57.0334 11.9635 56.9258 11.6323 56.6899 11.4026L55.3173 10.0658C54.7238 9.4876 55.0505 8.47976 55.8705 8.35992L57.7694 8.08235C58.0948 8.0348 58.376 7.83034 58.5215 7.53549L59.37 5.81663Z" fill="white"/>
<rect x="75.6667" width="20" height="20" rx="3" fill="black" fill-opacity="0.2"/>
<path d="M84.37 5.81663C84.7368 5.07346 85.7965 5.07346 86.1634 5.81663L87.0118 7.53549C87.1574 7.83034 87.4385 8.0348 87.7639 8.08235L89.6629 8.35992C90.4828 8.47976 90.8096 9.4876 90.216 10.0658L88.8435 11.4026C88.6076 11.6323 88.4999 11.9635 88.5556 12.288L88.8793 14.1754C89.0194 14.9924 88.1619 15.6154 87.4282 15.2295L85.7321 14.3376C85.4407 14.1843 85.0926 14.1843 84.8012 14.3376L83.1051 15.2295C82.3715 15.6154 81.5139 14.9924 81.654 14.1754L81.9778 12.288C82.0334 11.9635 81.9258 11.6323 81.6899 11.4026L80.3173 10.0658C79.7238 9.4876 80.0505 8.47976 80.8705 8.35992L82.7694 8.08235C83.0948 8.0348 83.376 7.83034 83.5215 7.53549L84.37 5.81663Z" fill="white"/>
<rect x="100.667" width="20" height="20" rx="3" fill="black" fill-opacity="0.2"/>
<path d="M109.37 5.81663C109.737 5.07346 110.797 5.07346 111.163 5.81663L112.012 7.53549C112.157 7.83034 112.439 8.0348 112.764 8.08235L114.663 8.35992C115.483 8.47976 115.81 9.4876 115.216 10.0658L113.843 11.4026C113.608 11.6323 113.5 11.9635 113.556 12.288L113.879 14.1754C114.019 14.9924 113.162 15.6154 112.428 15.2295L110.732 14.3376C110.441 14.1843 110.093 14.1843 109.801 14.3376L108.105 15.2295C107.371 15.6154 106.514 14.9924 106.654 14.1754L106.978 12.288C107.033 11.9635 106.926 11.6323 106.69 11.4026L105.317 10.0658C104.724 9.4876 105.051 8.47976 105.87 8.35992L107.769 8.08235C108.095 8.0348 108.376 7.83034 108.522 7.53549L109.37 5.81663Z" fill="white"/>
</g>
<defs>
<clipPath id="clip0_260_109">
<rect width="120" height="20" fill="white" transform="translate(0.666656)"/>
</clipPath>
</defs>
</svg>
