<svg width="45" height="44" viewBox="0 0 45 44" fill="none" xmlns="http://www.w3.org/2000/svg">
<rect x="0.666626" width="44" height="44" rx="22" fill="#FE5E44" fill-opacity="0.05"/>
<g clip-path="url(#clip0_270_1111)">
<path d="M33.6666 12.9998C32.709 13.6753 31.6487 14.1919 30.5266 14.5298C29.9244 13.8373 29.124 13.3465 28.2337 13.1237C27.3434 12.901 26.4061 12.957 25.5487 13.2843C24.6913 13.6115 23.9551 14.1942 23.4396 14.9535C22.9241 15.7128 22.6543 16.6121 22.6666 17.5298V18.5298C20.9093 18.5754 19.1679 18.1856 17.5976 17.3952C16.0274 16.6049 14.6769 15.4384 13.6666 13.9998C13.6666 13.9998 9.66663 22.9998 18.6666 26.9998C16.6072 28.3978 14.1538 29.0987 11.6666 28.9998C20.6666 33.9998 31.6666 28.9998 31.6666 17.4998C31.6657 17.2213 31.6389 16.9434 31.5866 16.6698C32.6072 15.6633 33.3275 14.3925 33.6666 12.9998V12.9998Z" stroke="#FE5E44" stroke-linecap="round" stroke-linejoin="round"/>
</g>
<defs>
<clipPath id="clip0_270_1111">
<rect width="24" height="24" fill="white" transform="translate(10.6666 10)"/>
</clipPath>
</defs>
</svg>
